<mxfile host="app.diagrams.net" modified="2020-12-17T08:03:53.555Z" agent="5.0 (Windows NT 6.1; Win64; x64) AppleWebKit/537.36 (KHTML, like Gecko) Chrome/87.0.4280.88 Safari/537.36" etag="z9Mo7heuklG2ZZcJ5zzu" version="14.0.3" type="github">
  <diagram name="Page-1" id="edf60f1a-56cd-e834-aa8a-f176f3a09ee4">
    <mxGraphModel dx="1038" dy="1410" grid="1" gridSize="10" guides="1" tooltips="1" connect="1" arrows="1" fold="1" page="1" pageScale="1" pageWidth="1100" pageHeight="850" background="#ffffff" math="0" shadow="0">
      <root>
        <mxCell id="0" />
        <mxCell id="1" parent="0" />
        <mxCell id="IitV4nbfbQ1-PYlOrOh6-29" value="" style="edgeStyle=orthogonalEdgeStyle;rounded=0;orthogonalLoop=1;jettySize=auto;html=1;" edge="1" parent="1" source="IitV4nbfbQ1-PYlOrOh6-1" target="IitV4nbfbQ1-PYlOrOh6-28">
          <mxGeometry relative="1" as="geometry" />
        </mxCell>
        <mxCell id="IitV4nbfbQ1-PYlOrOh6-1" value="Redis集群" style="rounded=0;whiteSpace=wrap;html=1;" vertex="1" parent="1">
          <mxGeometry x="115" y="70" width="555" height="120" as="geometry" />
        </mxCell>
        <mxCell id="IitV4nbfbQ1-PYlOrOh6-2" value="" style="rounded=0;whiteSpace=wrap;html=1;" vertex="1" parent="1">
          <mxGeometry x="120" y="290" width="760" height="170" as="geometry" />
        </mxCell>
        <mxCell id="IitV4nbfbQ1-PYlOrOh6-3" value="秒杀服务" style="rounded=0;whiteSpace=wrap;html=1;" vertex="1" parent="1">
          <mxGeometry x="170" y="345" width="120" height="60" as="geometry" />
        </mxCell>
        <mxCell id="IitV4nbfbQ1-PYlOrOh6-4" value="秒杀服务" style="rounded=0;whiteSpace=wrap;html=1;" vertex="1" parent="1">
          <mxGeometry x="310" y="345" width="120" height="60" as="geometry" />
        </mxCell>
        <mxCell id="IitV4nbfbQ1-PYlOrOh6-5" value="秒杀服务" style="rounded=0;whiteSpace=wrap;html=1;" vertex="1" parent="1">
          <mxGeometry x="450" y="345" width="120" height="60" as="geometry" />
        </mxCell>
        <mxCell id="IitV4nbfbQ1-PYlOrOh6-6" value="秒杀服务" style="rounded=0;whiteSpace=wrap;html=1;" vertex="1" parent="1">
          <mxGeometry x="580" y="345" width="120" height="60" as="geometry" />
        </mxCell>
        <mxCell id="IitV4nbfbQ1-PYlOrOh6-7" value="秒杀服务" style="rounded=0;whiteSpace=wrap;html=1;" vertex="1" parent="1">
          <mxGeometry x="730" y="345" width="120" height="60" as="geometry" />
        </mxCell>
        <mxCell id="IitV4nbfbQ1-PYlOrOh6-8" value="数据库" style="rounded=0;whiteSpace=wrap;html=1;" vertex="1" parent="1">
          <mxGeometry x="760" y="-260" width="120" height="60" as="geometry" />
        </mxCell>
        <mxCell id="IitV4nbfbQ1-PYlOrOh6-23" value="" style="edgeStyle=orthogonalEdgeStyle;rounded=0;orthogonalLoop=1;jettySize=auto;html=1;" edge="1" parent="1" source="IitV4nbfbQ1-PYlOrOh6-9" target="IitV4nbfbQ1-PYlOrOh6-21">
          <mxGeometry relative="1" as="geometry" />
        </mxCell>
        <mxCell id="IitV4nbfbQ1-PYlOrOh6-9" value="" style="rounded=0;whiteSpace=wrap;html=1;" vertex="1" parent="1">
          <mxGeometry x="120" y="840" width="760" height="140" as="geometry" />
        </mxCell>
        <mxCell id="IitV4nbfbQ1-PYlOrOh6-11" value="前端" style="rounded=0;whiteSpace=wrap;html=1;" vertex="1" parent="1">
          <mxGeometry x="145" y="890" width="120" height="60" as="geometry" />
        </mxCell>
        <mxCell id="IitV4nbfbQ1-PYlOrOh6-12" value="前端" style="rounded=0;whiteSpace=wrap;html=1;" vertex="1" parent="1">
          <mxGeometry x="295" y="890" width="120" height="60" as="geometry" />
        </mxCell>
        <mxCell id="IitV4nbfbQ1-PYlOrOh6-13" value="前端" style="rounded=0;whiteSpace=wrap;html=1;" vertex="1" parent="1">
          <mxGeometry x="445" y="890" width="120" height="60" as="geometry" />
        </mxCell>
        <mxCell id="IitV4nbfbQ1-PYlOrOh6-14" value="前端" style="rounded=0;whiteSpace=wrap;html=1;" vertex="1" parent="1">
          <mxGeometry x="595" y="890" width="120" height="60" as="geometry" />
        </mxCell>
        <mxCell id="IitV4nbfbQ1-PYlOrOh6-15" value="前端" style="rounded=0;whiteSpace=wrap;html=1;" vertex="1" parent="1">
          <mxGeometry x="735" y="890" width="120" height="60" as="geometry" />
        </mxCell>
        <mxCell id="IitV4nbfbQ1-PYlOrOh6-16" value="Redis实例" style="rounded=0;whiteSpace=wrap;html=1;" vertex="1" parent="1">
          <mxGeometry x="120" y="110" width="120" height="60" as="geometry" />
        </mxCell>
        <mxCell id="IitV4nbfbQ1-PYlOrOh6-17" value="Redis实例" style="rounded=0;whiteSpace=wrap;html=1;" vertex="1" parent="1">
          <mxGeometry x="240" y="110" width="120" height="60" as="geometry" />
        </mxCell>
        <mxCell id="IitV4nbfbQ1-PYlOrOh6-18" value="Redis实例" style="rounded=0;whiteSpace=wrap;html=1;" vertex="1" parent="1">
          <mxGeometry x="430" y="110" width="120" height="60" as="geometry" />
        </mxCell>
        <mxCell id="IitV4nbfbQ1-PYlOrOh6-19" value="Redis实例" style="rounded=0;whiteSpace=wrap;html=1;" vertex="1" parent="1">
          <mxGeometry x="550" y="110" width="120" height="60" as="geometry" />
        </mxCell>
        <mxCell id="IitV4nbfbQ1-PYlOrOh6-27" value="" style="edgeStyle=orthogonalEdgeStyle;rounded=0;orthogonalLoop=1;jettySize=auto;html=1;" edge="1" parent="1" source="IitV4nbfbQ1-PYlOrOh6-21" target="IitV4nbfbQ1-PYlOrOh6-2">
          <mxGeometry relative="1" as="geometry" />
        </mxCell>
        <mxCell id="IitV4nbfbQ1-PYlOrOh6-21" value="Nginx（负载均衡，拦截恶意请求）" style="rounded=0;whiteSpace=wrap;html=1;" vertex="1" parent="1">
          <mxGeometry x="120" y="590" width="760" height="170" as="geometry" />
        </mxCell>
        <mxCell id="IitV4nbfbQ1-PYlOrOh6-31" value="" style="edgeStyle=orthogonalEdgeStyle;rounded=0;orthogonalLoop=1;jettySize=auto;html=1;" edge="1" parent="1" source="IitV4nbfbQ1-PYlOrOh6-22" target="IitV4nbfbQ1-PYlOrOh6-8">
          <mxGeometry relative="1" as="geometry" />
        </mxCell>
        <mxCell id="IitV4nbfbQ1-PYlOrOh6-33" value="生成订单记录，修改库存 持久化" style="edgeLabel;html=1;align=center;verticalAlign=middle;resizable=0;points=[];" vertex="1" connectable="0" parent="IitV4nbfbQ1-PYlOrOh6-31">
          <mxGeometry x="-0.2529" y="1" relative="1" as="geometry">
            <mxPoint as="offset" />
          </mxGeometry>
        </mxCell>
        <mxCell id="IitV4nbfbQ1-PYlOrOh6-22" value="RocketMQ队列下单" style="rounded=0;whiteSpace=wrap;html=1;" vertex="1" parent="1">
          <mxGeometry x="332.5" y="-260" width="120" height="60" as="geometry" />
        </mxCell>
        <mxCell id="IitV4nbfbQ1-PYlOrOh6-30" value="减库成功，生成订单" style="edgeStyle=orthogonalEdgeStyle;rounded=0;orthogonalLoop=1;jettySize=auto;html=1;" edge="1" parent="1" source="IitV4nbfbQ1-PYlOrOh6-28" target="IitV4nbfbQ1-PYlOrOh6-22">
          <mxGeometry relative="1" as="geometry" />
        </mxCell>
        <mxCell id="IitV4nbfbQ1-PYlOrOh6-28" value="Lua判断减库扣库" style="rhombus;whiteSpace=wrap;html=1;" vertex="1" parent="1">
          <mxGeometry x="313.75" y="-100" width="157.5" height="80" as="geometry" />
        </mxCell>
      </root>
    </mxGraphModel>
  </diagram>
</mxfile>
